<?xml version="1.0" encoding="UTF-8"?>
<!DOCTYPE svg PUBLIC "-//W3C//DTD SVG 1.1//EN" "http://www.w3.org/Graphics/SVG/1.1/DTD/svg11.dtd">
<!-- Creator: CorelDRAW 2021 (64-Bit) -->
<svg xmlns="http://www.w3.org/2000/svg" xml:space="preserve" width="7.31481in" height="0.991291in" version="1.1" style="shape-rendering:geometricPrecision; text-rendering:geometricPrecision; image-rendering:optimizeQuality; fill-rule:evenodd; clip-rule:evenodd"
viewBox="0 0 7307.73 990.33"
 xmlns:xlink="http://www.w3.org/1999/xlink"
 xmlns:xodm="http://www.corel.com/coreldraw/odm/2003">
 <defs>
  <style type="text/css">
   <![CDATA[
    .str0 {stroke:#1C1B17;stroke-width:6.94;stroke-linecap:round;stroke-linejoin:round;stroke-miterlimit:2.61313}
    .fil0 {fill:none;fill-rule:nonzero}
    .fil4 {fill:#393185}
    .fil2 {fill:#EE404C}
    .fil3 {fill:#FEF6EC}
    .fil1 {fill:#1C1B17;fill-rule:nonzero}
   ]]>
  </style>
 </defs>
 <g id="Layer_x0020_1">
  <metadata id="CorelCorpID_0Corel-Layer"/>
  <g id="_2221170324032">
   <line class="fil0 str0" x1="3.47" y1="3.47" x2="7304.26" y2= "3.47" />
   <path class="fil1" d="M100.25 619.58c18.2,0 31.23,-4.22 38.7,-12.45 6.32,-7.09 9.58,-15.33 9.58,-24.72 0,-16.86 -10.34,-28.74 -27.21,-32.38l4.79 -2.11 4.98 -3.45c6.71,-5.17 9.96,-12.84 9.96,-23.37 0,-8.62 -3.06,-16.48 -9.2,-23.37 -6.32,-7.47 -19.73,-12.07 -38.12,-12.07l-52.11 0 0 133.92 58.63 0zm-36.02 -78.36l0 -34.68 28.93 0c16.86,0 24.33,4.98 24.33,18.01 0,11.11 -8.24,16.67 -24.52,16.67l-28.74 0zm0 57.48l0 -36.59 32.57 0c18.97,0 28.55,5.94 28.55,17.82 0,14.56 -8.81,18.77 -25.67,18.77l-35.45 0zm133.35 -5.94c-5.94,-6.32 -9.01,-14.37 -9.01,-24.14 0,-9.77 3.07,-17.63 9.01,-23.95 6.13,-6.32 13.79,-9.39 23.18,-9.39 9.39,0 17.05,3.06 22.99,9.39 6.13,6.13 9.2,14.18 9.2,23.95 0,9.77 -3.07,17.82 -9.2,24.14 -5.94,6.13 -13.6,9.2 -22.99,9.2 -9.39,0 -17.05,-3.07 -23.18,-9.2zm61.5 13.22c10.16,-10.15 15.33,-22.6 15.33,-37.36 0,-14.56 -5.17,-27.02 -15.33,-37.17 -10.15,-10.16 -22.99,-15.33 -38.32,-15.33 -15.33,0 -28.17,5.17 -38.32,15.33 -10.16,10.15 -15.33,22.61 -15.33,37.17 0,14.75 5.17,27.21 15.33,37.36 10.15,10.16 22.8,15.14 38.32,15.14 15.52,0 28.17,-4.98 38.32,-15.14zm94.26 -68.21l-0.19 -21.65c-13.22,0.19 -26.06,9 -32.96,22.03l0 -20.5 -21.46 0 0 101.93 21.46 0 0 -43.68c0,-23.18 10.54,-38.13 32,-38.13l1.15 0zm66.68 83.34c16.09,0 30.46,-6.32 42.92,-18.78l-12.65 -13.79c-8.43,8.62 -17.44,13.03 -27.01,13.03 -9.39,0 -17.44,-3.26 -23.95,-9.77 -6.51,-6.51 -9.77,-14.37 -9.77,-23.76 0,-9.39 3.26,-17.05 9.77,-22.99 13.22,-12.26 32.38,-12.65 50,2.49l12.65 -15.52c-10.54,-10.54 -23.56,-15.9 -38.89,-15.9 -15.13,0 -28.17,4.98 -39.08,14.75 -10.54,9.77 -15.9,22.42 -15.9,37.93 0,15.52 5.17,28.17 15.33,37.94 10.15,9.58 22.22,14.37 36.59,14.37zm139.09 -56.71c0,-9.58 2.68,-16.67 8.24,-21.46 5.56,-4.98 11.88,-7.47 19.35,-7.47 15.52,0 23.37,9.38 23.37,28.16l0 55.95 21.46 0 0 -62.46c0,-26.63 -15.52,-41 -38.51,-41 -14.56,0 -27.78,7.66 -33.91,20.11l0 -58.62 -21.46 0 0 141.97 21.46 0 0 -55.18zm197.15 13.6l0 -14.75c0,-14.75 -4.79,-26.25 -14.56,-34.49 -9.77,-8.43 -21.65,-12.65 -35.45,-12.65 -13.79,0 -25.86,4.79 -36.02,14.18 -10.15,9.39 -15.33,22.23 -15.33,38.32 0,15.9 4.98,28.74 14.95,38.32 10.16,9.39 22.42,14.18 36.59,14.18 17.62,0 32,-5.75 42.92,-17.05l-12.26 -13.41c-6.71,8.04 -16.48,12.07 -29.12,12.07 -7.86,0 -15.14,-2.3 -21.46,-6.71 -6.13,-4.41 -9.58,-10.54 -10.16,-18.01l79.9 0zm-79.9 -16.86c0,-8.24 3.07,-14.56 9.39,-19.35 6.32,-4.79 13.41,-7.28 21.07,-7.28 16.09,0 27.97,9.58 27.97,26.63l-58.44 0zm138.52 59.97c10.92,0 19.93,-2.88 27.01,-8.62 7.09,-5.94 10.54,-13.6 10.54,-23.37 0,-9.77 -3.45,-16.86 -10.34,-21.46 -6.9,-4.6 -12.65,-6.71 -18.97,-8.81 -6.13,-2.1 -16.28,-3.83 -20.69,-6.32 -3.26,-1.53 -4.98,-4.02 -4.98,-7.28 0,-7.47 7.09,-11.11 17.24,-11.11 9.77,0 18.78,2.68 27.01,8.24l8.05 -15.9c-10.54,-6.89 -21.65,-10.34 -33.33,-10.34 -11.69,0 -21.27,2.87 -28.74,8.62 -7.28,5.55 -10.92,13.22 -10.92,22.61 0,13.41 10.54,22.99 31.8,28.74l2.3 0.77c13.6,4.02 20.31,8.62 20.31,13.8 0,6.89 -5.94,11.88 -15.71,11.88 -11.3,0 -22.8,-4.41 -34.49,-13.41l-10.35 16.67c12.26,9.77 29.51,15.33 44.26,15.33zm144.46 -1.53l0 -65.72c0,-26.06 -16.86,-37.74 -40.81,-37.74 -15.52,0 -29.7,4.98 -42.15,14.75l9.58 13.41c10.16,-6.89 19.93,-10.34 29.5,-10.34 15.14,0 22.61,6.71 22.61,20.31l0 3.83 -27.78 0c-25.48,0 -41.19,9.96 -41.19,30.08 0,10.16 3.45,18.01 10.35,23.95 7.09,5.94 15.9,9.01 26.44,9.01 14.18,0 25.48,-4.98 33.91,-15.14l0 13.6 19.54 0zm-21.46 -37.94c0,13.03 -11.88,21.27 -25.68,21.27 -13.79,0 -21.65,-5.36 -21.65,-15.33 0,-9.77 7.66,-14.56 23.18,-14.56l24.14 0 0 8.62zm72.8 22.61c10.16,11.3 21.65,16.86 34.49,16.86 12.84,0 24.14,-4.98 33.72,-14.75 9.77,-9.77 14.56,-22.42 14.56,-38.32 0,-15.9 -4.79,-28.36 -14.56,-37.75 -9.77,-9.38 -21.46,-14.18 -35.06,-14.18 -13.6,0 -24.71,6.51 -33.15,19.35l0 -58.05 -21.46 0 0 142.16 21.46 0 0 -15.33zm-0.38 -35.45c0,-9.77 2.88,-17.82 8.81,-24.14 5.94,-6.51 13.03,-9.77 21.65,-9.77 8.62,0 15.9,3.26 22.03,9.77 6.13,6.32 9.2,14.56 9.2,24.33 0,9.77 -3.06,17.63 -9.39,23.76 -6.32,6.13 -13.79,9.2 -22.03,9.2 -8.43,0 -15.52,-3.07 -21.46,-9.2 -5.94,-6.32 -8.81,-14.18 -8.81,-23.95zm190.25 50.77l0 -65.72c0,-26.06 -16.86,-37.74 -40.81,-37.74 -15.52,0 -29.7,4.98 -42.15,14.75l9.58 13.41c10.16,-6.89 19.93,-10.34 29.5,-10.34 15.14,0 22.61,6.71 22.61,20.31l0 3.83 -27.78 0c-25.48,0 -41.19,9.96 -41.19,30.08 0,10.16 3.45,18.01 10.35,23.95 7.09,5.94 15.9,9.01 26.44,9.01 14.18,0 25.48,-4.98 33.91,-15.14l0 13.6 19.54 0zm-21.46 -37.94c0,13.03 -11.88,21.27 -25.68,21.27 -13.79,0 -21.65,-5.36 -21.65,-15.33 0,-9.77 7.66,-14.56 23.18,-14.56l24.14 0 0 8.62zm77.79 -46.75l26.82 0 0 -17.24 -26.82 0 0 -31.99 -21.46 0 0 31.99 -12.84 0 0 17.24 12.84 0 0 51.16c-1.53,32.96 36.21,45.22 58.05,24.91l-8.81 -15.13c-4.22,4.41 -8.62,6.71 -13.22,6.71 -9.2,0 -14.56,-6.13 -14.56,-15.9l0 -51.73zm53.64 -17.24l0 101.93 21.46 0 0 -101.93 -21.46 0zm73.95 46.75c0,-9.58 2.68,-16.67 8.24,-21.46 5.56,-4.98 11.88,-7.47 19.35,-7.47 15.52,0 23.37,9.38 23.37,28.16l0 55.95 21.46 0 0 -62.46c0,-26.63 -15.52,-41 -38.51,-41 -13.99,0 -27.01,7.66 -33.91,20.11l0 -18.58 -21.46 0 0 101.93 21.46 0 0 -55.18zm102.31 -46.75l0 101.93 21.46 0 0 -101.93 -21.46 0zm126.45 46.75c0,-9.58 2.68,-16.67 8.24,-21.46 5.56,-4.98 11.88,-7.47 19.35,-7.47 14.75,0 21.46,8.81 21.46,28.16l0 55.95 21.46 0 0 -56.71c0.19,-9 2.88,-15.71 8.43,-20.31 5.56,-4.79 11.88,-7.09 19.16,-7.09 15.52,0 23.37,9.38 23.37,28.16l0 55.95 21.46 0 0 -62.46c0,-26.63 -15.52,-41 -38.51,-41 -14.94,0 -27.59,6.71 -37.74,19.93 -5.75,-13.22 -16.67,-19.93 -32.76,-19.93 -14.56,0 -27.78,7.66 -33.91,20.11l0 -18.58 -21.46 0 0 101.93 21.46 0 0 -55.18zm191.59 -63.23c4.6,4.6 12.07,4.6 16.67,0 4.79,-4.6 4.79,-12.26 0.19,-16.67 -4.6,-4.6 -12.07,-4.6 -16.67,0 -4.6,4.41 -4.6,12.07 -0.19,16.67zm43.87 3.45c6.71,0 11.88,-5.17 11.88,-11.88 0,-6.71 -5.17,-11.69 -11.88,-11.69 -6.32,0 -11.69,5.17 -11.69,11.88 0,6.32 5.36,11.69 11.69,11.69zm8.62 68.21c0,9.39 -2.68,16.67 -8.24,21.65 -5.56,4.79 -12.07,7.28 -19.35,7.28 -15.52,0 -23.37,-9.39 -23.37,-28.17l0 -55.95 -21.46 0 0 62.46c0,26.63 15.52,41 38.51,41 13.99,0 27.02,-7.67 33.91,-20.12l0 18.58 21.46 0 0 -101.93 -21.46 0 0 55.18zm78.94 -37.94l26.82 0 0 -17.24 -26.82 0 0 -31.99 -21.46 0 0 31.99 -12.84 0 0 17.24 12.84 0 0 51.16c-1.53,32.96 36.21,45.22 58.05,24.91l-8.81 -15.13c-4.22,4.41 -8.62,6.71 -13.22,6.71 -9.2,0 -14.56,-6.13 -14.56,-15.9l0 -51.73zm75.1 84.69l0 -142.16 -21.46 0 0 142.16 21.46 0zm24.52 -60.35l0 14.75c0,14.75 4.79,26.25 14.56,34.49 9.77,8.43 21.46,12.65 35.44,12.65 13.79,0 25.86,-4.79 36.02,-14.18 10.16,-9.39 15.33,-22.23 15.33,-38.32 0,-15.9 -4.98,-28.74 -14.95,-38.32 -10.15,-9.38 -22.42,-14.18 -36.59,-14.18 -17.62,0 -31.99,5.75 -42.92,17.05l12.26 13.41c6.71,-8.05 16.28,-12.07 29.12,-12.07 7.85,0 15.13,2.3 21.46,6.71 6.13,4.41 9.58,10.54 10.16,18.01l-79.9 0zm79.9 16.86c0,8.24 -3.06,14.56 -9.39,19.35 -6.32,4.79 -13.41,7.28 -21.07,7.28 -16.09,0 -27.97,-9.58 -27.97,-26.63l58.44 0zm121.28 -40.61c-8.43,-12.84 -19.54,-19.35 -33.15,-19.35 -13.6,0 -25.29,4.79 -35.06,14.18 -9.77,9.39 -14.56,21.84 -14.56,37.75 0,15.9 4.79,28.55 14.37,38.32 9.77,9.77 21.07,14.75 33.72,14.75 13.03,0 24.52,-5.56 34.68,-16.86l0 52.5 21.46 0 0 -139.1 -21.46 0 0 17.82zm-61.31 33.53c0,-9.77 3.07,-18.01 9.2,-24.33 6.13,-6.51 13.41,-9.77 22.03,-9.77 8.43,0 15.71,3.26 21.65,9.77 5.94,6.32 8.81,14.37 8.81,24.14 0,9.77 -2.87,17.63 -8.81,23.95 -5.94,6.13 -13.22,9.2 -21.46,9.2 -8.43,0 -15.71,-3.07 -22.03,-9.2 -6.32,-6.13 -9.39,-13.99 -9.39,-23.76zm217.84 72.81c0,-9.01 -4.41,-13.99 -13.41,-15.14l3.07 -5.94c8.24,-0.96 15.33,-3.83 20.88,-8.24 7.09,-5.94 10.54,-13.6 10.54,-23.37 0,-9.77 -3.45,-16.86 -10.34,-21.46 -6.9,-4.6 -12.65,-6.71 -18.97,-8.81 -6.13,-2.1 -16.28,-3.83 -20.69,-6.32 -3.26,-1.53 -4.98,-4.02 -4.98,-7.28 0,-7.47 7.09,-11.11 17.24,-11.11 9.77,0 18.78,2.68 27.01,8.24l8.05 -15.9c-10.54,-6.89 -21.65,-10.34 -33.33,-10.34 -11.69,0 -21.27,2.87 -28.74,8.62 -7.28,5.55 -10.92,13.22 -10.92,22.61 0,13.41 10.54,22.99 31.8,28.74l2.3 0.77c13.6,4.02 20.31,8.62 20.31,13.8 0,6.89 -5.94,11.88 -15.71,11.88 -11.3,0 -22.8,-4.41 -34.49,-13.41l-10.35 16.67c10.16,8.24 23.76,13.41 36.79,14.75l-6.13 11.88c4.6,-2.49 13.99,0 13.41,6.89 0,6.51 -7.47,9.77 -15.33,5.56l-4.98 10.92c4.41,2.88 9.77,4.22 15.9,4.22 12.26,0 21.07,-8.24 21.07,-18.2zm38.89 -82.58l0 14.75c0,14.75 4.79,26.25 14.56,34.49 9.77,8.43 21.46,12.65 35.44,12.65 13.79,0 25.86,-4.79 36.02,-14.18 10.16,-9.39 15.33,-22.23 15.33,-38.32 0,-15.9 -4.98,-28.74 -14.95,-38.32 -10.15,-9.38 -22.42,-14.18 -36.59,-14.18 -17.62,0 -31.99,5.75 -42.92,17.05l12.26 13.41c6.71,-8.05 16.28,-12.07 29.12,-12.07 7.85,0 15.13,2.3 21.46,6.71 6.13,4.41 9.58,10.54 10.16,18.01l-79.9 0zm79.9 16.86c0,8.24 -3.06,14.56 -9.39,19.35 -6.32,4.79 -13.41,7.28 -21.07,7.28 -16.09,0 -27.97,-9.58 -27.97,-26.63l58.44 0zm66.48 43.49l0 -28.93 15.52 -15.71 30.27 44.64 26.06 0 -41.57 -61.5 38.7 -40.43 -27.59 0 -41.39 43.3 0 -83.53 -21.46 0 0 142.16 21.46 0zm111.31 0l0 -101.93 -21.46 0 0 101.93 21.46 0zm-20.11 -122.24c5.36,5.36 13.79,5.36 19.16,0 5.36,-5.36 5.36,-13.79 0,-19.16 -5.36,-5.36 -13.79,-5.36 -19.16,0 -5.36,5.36 -5.36,13.79 0,19.16zm72.61 122.24l0 -142.16 -21.46 0 0 142.16 21.46 0zm107.29 -86.22c-8.24,-11.5 -19.35,-17.24 -32.96,-17.24 -13.6,0 -25.29,4.79 -35.06,14.18 -9.77,9.39 -14.75,22.03 -14.75,37.94 0,15.9 4.79,28.55 14.37,38.32 9.58,9.77 20.88,14.56 33.72,14.56 15.33,0 26.82,-5.56 34.68,-16.86l0 15.33 21.46 0 0 -142.16 -21.46 0 0 55.95zm-61.31 35.83c0,-9.77 3.07,-18.01 9.2,-24.52 6.13,-6.51 13.41,-9.77 22.03,-9.77 8.43,0 15.71,3.26 21.65,9.77 5.94,6.32 8.81,14.56 8.81,24.33 0,9.77 -2.87,17.63 -8.81,23.95 -5.94,6.13 -13.22,9.2 -21.46,9.2 -8.43,0 -15.71,-3.06 -22.03,-9.2 -6.32,-6.13 -9.39,-13.99 -9.39,-23.76zm107.29 -9.96l0 14.75c0,14.75 4.79,26.25 14.56,34.49 9.77,8.43 21.46,12.65 35.44,12.65 13.79,0 25.86,-4.79 36.02,-14.18 10.16,-9.39 15.33,-22.23 15.33,-38.32 0,-15.9 -4.98,-28.74 -14.95,-38.32 -10.15,-9.38 -22.42,-14.18 -36.59,-14.18 -17.62,0 -31.99,5.75 -42.92,17.05l12.26 13.41c6.71,-8.05 16.28,-12.07 29.12,-12.07 7.85,0 15.13,2.3 21.46,6.71 6.13,4.41 9.58,10.54 10.16,18.01l-79.9 0zm79.9 16.86c0,8.24 -3.06,14.56 -9.39,19.35 -6.32,4.79 -13.41,7.28 -21.07,7.28 -16.09,0 -27.97,-9.58 -27.97,-26.63l58.44 0z"/>
   <path class="fil1" d="M335.81 888.1l0 -101.93 -21.46 0 0 101.93 21.46 0zm-20.11 -122.24c5.36,5.36 13.79,5.36 19.16,0 5.36,-5.36 5.36,-13.79 0,-19.16 -5.36,-5.36 -13.79,-5.36 -19.16,0 -5.36,5.36 -5.36,13.79 0,19.16zm72.61 67.06c0,-9.58 2.68,-16.67 8.24,-21.46 5.56,-4.98 11.88,-7.47 19.35,-7.47 15.52,0 23.37,9.38 23.37,28.16l0 55.95 21.46 0 0 -62.46c0,-26.63 -15.52,-41 -38.51,-41 -13.99,0 -27.01,7.66 -33.91,20.11l0 -18.58 -21.46 0 0 101.93 21.46 0 0 -55.18zm147.53 56.71c16.09,0 30.46,-6.32 42.92,-18.78l-12.65 -13.79c-8.43,8.62 -17.44,13.03 -27.01,13.03 -9.39,0 -17.44,-3.26 -23.95,-9.77 -6.51,-6.51 -9.77,-14.37 -9.77,-23.76 0,-9.39 3.26,-17.05 9.77,-22.99 13.22,-12.26 32.38,-12.65 50,2.49l12.65 -15.52c-10.54,-10.54 -23.56,-15.9 -38.89,-15.9 -15.13,0 -28.17,4.98 -39.08,14.75 -10.54,9.77 -15.9,22.42 -15.9,37.93 0,15.52 5.17,28.17 15.33,37.94 10.15,9.58 22.22,14.37 36.59,14.37zm58.62 -61.88l0 14.75c0,14.75 4.79,26.25 14.56,34.49 9.77,8.43 21.46,12.65 35.44,12.65 13.79,0 25.86,-4.79 36.02,-14.18 10.16,-9.39 15.33,-22.23 15.33,-38.32 0,-15.9 -4.98,-28.74 -14.95,-38.32 -10.15,-9.38 -22.42,-14.18 -36.59,-14.18 -17.62,0 -31.99,5.75 -42.92,17.05l12.26 13.41c6.71,-8.05 16.28,-12.07 29.12,-12.07 7.85,0 15.13,2.3 21.46,6.71 6.13,4.41 9.58,10.54 10.16,18.01l-79.9 0zm79.9 16.86c0,8.24 -3.06,14.56 -9.39,19.35 -6.32,4.79 -13.41,7.28 -21.07,7.28 -16.09,0 -27.97,-9.58 -27.97,-26.63l58.44 0zm66.48 43.49l0 -142.16 -21.46 0 0 142.16 21.46 0zm24.52 -60.35l0 14.75c0,14.75 4.79,26.25 14.56,34.49 9.77,8.43 21.46,12.65 35.44,12.65 13.79,0 25.86,-4.79 36.02,-14.18 10.16,-9.39 15.33,-22.23 15.33,-38.32 0,-15.9 -4.98,-28.74 -14.95,-38.32 -10.15,-9.38 -22.42,-14.18 -36.59,-14.18 -17.62,0 -31.99,5.75 -42.92,17.05l12.26 13.41c6.71,-8.05 16.28,-12.07 29.12,-12.07 7.85,0 15.13,2.3 21.46,6.71 6.13,4.41 9.58,10.54 10.16,18.01l-79.9 0zm79.9 16.86c0,8.24 -3.06,14.56 -9.39,19.35 -6.32,4.79 -13.41,7.28 -21.07,7.28 -16.09,0 -27.97,-9.58 -27.97,-26.63l58.44 0zm66.48 -11.69c0,-9.58 2.68,-16.67 8.24,-21.46 5.56,-4.98 11.88,-7.47 19.35,-7.47 14.75,0 21.46,8.81 21.46,28.16l0 55.95 21.46 0 0 -56.71c0.19,-9 2.88,-15.71 8.43,-20.31 5.56,-4.79 11.88,-7.09 19.16,-7.09 15.52,0 23.37,9.38 23.37,28.16l0 55.95 21.46 0 0 -62.46c0,-26.63 -15.52,-41 -38.51,-41 -14.94,0 -27.59,6.71 -37.74,19.93 -5.75,-13.22 -16.67,-19.93 -32.76,-19.93 -14.56,0 -27.78,7.66 -33.91,20.11l0 -18.58 -21.46 0 0 101.93 21.46 0 0 -55.18zm166.3 -5.17l0 14.75c0,14.75 4.79,26.25 14.56,34.49 9.77,8.43 21.46,12.65 35.44,12.65 13.79,0 25.86,-4.79 36.02,-14.18 10.16,-9.39 15.33,-22.23 15.33,-38.32 0,-15.9 -4.98,-28.74 -14.95,-38.32 -10.15,-9.38 -22.42,-14.18 -36.59,-14.18 -17.62,0 -31.99,5.75 -42.92,17.05l12.26 13.41c6.71,-8.05 16.28,-12.07 29.12,-12.07 7.85,0 15.13,2.3 21.46,6.71 6.13,4.41 9.58,10.54 10.16,18.01l-79.9 0zm79.9 16.86c0,8.24 -3.06,14.56 -9.39,19.35 -6.32,4.79 -13.41,7.28 -21.07,7.28 -16.09,0 -27.97,-9.58 -27.97,-26.63l58.44 0zm57.86 84.11c13.22,0 24.91,-8.24 30.85,-21.46l49.43 -121.09 -22.99 0 -30.46 75.1 -30.46 -75.1 -22.99 0c27.4,68.21 41.19,103.08 41.19,104.8 0.58,12.65 -16.67,24.14 -30.08,10.15l-9.77 17.44c7.47,6.71 15.9,10.16 25.29,10.16zm118.59 -40.62l0 -101.93 -21.46 0 0 101.93 21.46 0zm-20.11 -122.24c5.36,5.36 13.79,5.36 19.16,0 5.36,-5.36 5.36,-13.79 0,-19.16 -5.36,-5.36 -13.79,-5.36 -19.16,0 -5.36,5.36 -5.36,13.79 0,19.16zm72.61 67.06c0,-9.58 2.68,-16.67 8.24,-21.46 5.56,-4.98 11.88,-7.47 19.35,-7.47 15.52,0 23.37,9.38 23.37,28.16l0 55.95 21.46 0 0 -62.46c0,-26.63 -15.52,-41 -38.51,-41 -13.99,0 -27.01,7.66 -33.91,20.11l0 -18.58 -21.46 0 0 101.93 21.46 0 0 -55.18zm123.77 55.18l0 -101.93 -21.46 0 0 101.93 21.46 0zm-20.11 -122.24c5.36,5.36 13.79,5.36 19.16,0 5.36,-5.36 5.36,-13.79 0,-19.16 -5.36,-5.36 -13.79,-5.36 -19.16,0 -5.36,5.36 -5.36,13.79 0,19.16zm47.9 39.08l51.92 0 -55.75 62.27 0 20.89 86.6 0 0 -18.58 -60.35 0 57.29 -63.61 0 -19.35 -79.7 0 0 18.39zm175.69 -18.78l-26.25 0 34.29 50.01 -36.21 51.92 25.1 0 23.76 -33.91 24.33 33.91 26.44 0 -37.17 -52.11 35.64 -49.81 -25.48 0 -22.61 33.53 -21.84 -33.53zm173.2 101.93l0 -65.72c0,-26.06 -16.86,-37.74 -40.81,-37.74 -15.52,0 -29.7,4.98 -42.15,14.75l9.58 13.41c10.16,-6.89 19.93,-10.34 29.5,-10.34 15.14,0 22.61,6.71 22.61,20.31l0 3.83 -27.78 0c-25.48,0 -41.19,9.96 -41.19,30.08 0,10.16 3.45,18.01 10.35,23.95 7.09,5.94 15.9,9.01 26.44,9.01 14.18,0 25.48,-4.98 33.91,-15.14l0 13.6 19.54 0zm-21.46 -37.94c0,13.03 -11.88,21.27 -25.68,21.27 -13.79,0 -21.65,-5.36 -21.65,-15.33 0,-9.77 7.66,-14.56 23.18,-14.56l24.14 0 0 8.62zm72.8 37.94l0 -101.93 -21.46 0 0 101.93 21.46 0zm-20.11 -122.24c5.36,5.36 13.79,5.36 19.16,0 5.36,-5.36 5.36,-13.79 0,-19.16 -5.36,-5.36 -13.79,-5.36 -19.16,0 -5.36,5.36 -5.36,13.79 0,19.16zm102.69 144.46c0,-9.01 -4.41,-13.99 -13.41,-15.14l3.07 -5.94c8.24,-0.96 15.33,-3.83 20.88,-8.24 7.09,-5.94 10.54,-13.6 10.54,-23.37 0,-9.77 -3.45,-16.86 -10.34,-21.46 -6.9,-4.6 -12.65,-6.71 -18.97,-8.81 -6.13,-2.1 -16.28,-3.83 -20.69,-6.32 -3.26,-1.53 -4.98,-4.02 -4.98,-7.28 0,-7.47 7.09,-11.11 17.24,-11.11 9.77,0 18.78,2.68 27.01,8.24l8.05 -15.9c-10.54,-6.89 -21.65,-10.34 -33.33,-10.34 -11.69,0 -21.27,2.87 -28.74,8.62 -7.28,5.55 -10.92,13.22 -10.92,22.61 0,13.41 10.54,22.99 31.8,28.74l2.3 0.77c13.6,4.02 20.31,8.62 20.31,13.8 0,6.89 -5.94,11.88 -15.71,11.88 -11.3,0 -22.8,-4.41 -34.49,-13.41l-10.35 16.67c10.16,8.24 23.76,13.41 36.79,14.75l-6.13 11.88c4.6,-2.49 13.99,0 13.41,6.89 0,6.51 -7.47,9.77 -15.33,5.56l-4.98 10.92c4.41,2.88 9.77,4.22 15.9,4.22 12.26,0 21.07,-8.24 21.07,-18.2zm121.66 -49.05c-5.94,-6.32 -9.01,-14.37 -9.01,-24.14 0,-9.77 3.07,-17.63 9.01,-23.95 6.13,-6.32 13.79,-9.39 23.18,-9.39 9.39,0 17.05,3.06 22.99,9.39 6.13,6.13 9.2,14.18 9.2,23.95 0,9.77 -3.07,17.82 -9.2,24.14 -5.94,6.13 -13.6,9.2 -22.99,9.2 -9.39,0 -17.05,-3.07 -23.18,-9.2zm61.5 13.22c10.16,-10.15 15.33,-22.6 15.33,-37.36 0,-14.56 -5.17,-27.02 -15.33,-37.17 -10.15,-10.16 -22.99,-15.33 -38.32,-15.33 -15.33,0 -28.17,5.17 -38.32,15.33 -10.16,10.15 -15.33,22.61 -15.33,37.17 0,14.75 5.17,27.21 15.33,37.36 10.15,10.16 22.8,15.14 38.32,15.14 15.52,0 28.17,-4.98 38.32,-15.14zm61.12 13.6l0 -142.16 -21.46 0 0 142.16 21.46 0zm102.31 -46.75c0,9.39 -2.68,16.67 -8.24,21.65 -5.56,4.79 -12.07,7.28 -19.35,7.28 -15.52,0 -23.37,-9.39 -23.37,-28.17l0 -55.95 -21.46 0 0 62.46c0,26.63 15.52,41 38.51,41 13.99,0 27.02,-7.67 33.91,-20.12l0 18.58 21.46 0 0 -101.93 -21.46 0 0 55.18zm73.96 -8.43c0,-9.58 2.68,-16.67 8.24,-21.46 5.56,-4.98 11.88,-7.47 19.35,-7.47 15.52,0 23.37,9.38 23.37,28.16l0 55.95 21.46 0 0 -62.46c0,-26.63 -15.52,-41 -38.51,-41 -13.99,0 -27.01,7.66 -33.91,20.11l0 -18.58 -21.46 0 0 101.93 21.46 0 0 -55.18zm173.58 8.43c0,9.39 -2.68,16.67 -8.24,21.65 -5.56,4.79 -12.07,7.28 -19.35,7.28 -15.52,0 -23.37,-9.39 -23.37,-28.17l0 -55.95 -21.46 0 0 62.46c0,26.63 15.52,41 38.51,41 13.99,0 27.02,-7.67 33.91,-20.12l0 18.58 21.46 0 0 -101.93 -21.46 0 0 55.18zm107.1 -35.06l-0.19 -21.65c-13.22,0.19 -26.06,9 -32.96,22.03l0 -20.5 -21.46 0 0 101.93 21.46 0 0 -43.68c0,-23.18 10.54,-38.13 32,-38.13l1.15 0zm22.61 79.13c5.56,5.56 14.75,5.56 20.31,0 5.56,-5.56 5.56,-14.75 0,-20.12 -5.55,-5.55 -14.75,-5.55 -20.31,0 -5.36,5.36 -5.36,14.56 0,20.12z"/>
   <path class="fil2" d="M1514.36 327.57c20.72,-7.43 30.24,24.58 10.32,30.75 -20.78,6.43 -30.18,-23.63 -10.32,-30.75zm-0.24 -122.4c10.14,-2.56 19.49,2.08 21.33,10.81 1.06,5.07 0.36,55.89 0.39,65.59 0.03,11.12 -1.3,19.05 -10.7,21.56 -10.78,2.88 -19.56,-2.33 -21.38,-10.78 -1.14,-5.24 -0.42,-55.78 -0.44,-65.57 -0.02,-10.78 1.03,-19.13 10.8,-21.6zm-146.3 162.39c0,17.34 12.99,26.98 30.35,26.98l242.8 0c23.55,0 39.73,-18.49 23.76,-44.85l-125.61 -216.66c-9.25,-11.23 -29.85,-11.25 -39.1,0 -3.39,4.13 -6.38,10.35 -9.27,15.17 -22.63,37.65 -49.18,85.22 -71.54,124.05 -2.97,5.17 -5.9,9.99 -8.98,15.48 -3.02,5.41 -5.77,10.18 -8.95,15.49 -6.31,10.5 -11.66,20.38 -17.93,30.97 -5.16,8.73 -15.53,24.41 -15.53,33.36z"/>
   <path class="fil3" d="M1514.12 205.17c-9.78,2.47 -10.83,10.82 -10.8,21.6 0.02,9.79 -0.7,60.34 0.44,65.57 1.83,8.45 10.6,13.66 21.38,10.78 9.4,-2.51 10.73,-10.44 10.7,-21.56 -0.02,-9.7 0.68,-60.51 -0.39,-65.59 -1.84,-8.73 -11.19,-13.37 -21.33,-10.81z"/>
   <path class="fil3" d="M1514.36 327.57c-19.86,7.12 -10.45,37.19 10.32,30.75 19.92,-6.18 10.4,-38.19 -10.32,-30.75z"/>
   <path class="fil1" d="M5017.04 401.21l0 -104.61 46.56 92.93 12.65 0 46.75 -92.93 0 104.61 22.61 0 0 -133.92 -35.06 0 -40.43 84.11 -40.43 -84.11 -35.25 0 0 133.92 22.61 0zm156.14 -60.35l0 14.75c0,14.75 4.79,26.25 14.56,34.49 9.77,8.43 21.46,12.65 35.44,12.65 13.79,0 25.86,-4.79 36.02,-14.18 10.16,-9.39 15.33,-22.23 15.33,-38.32 0,-15.9 -4.98,-28.74 -14.95,-38.32 -10.15,-9.38 -22.42,-14.18 -36.59,-14.18 -17.62,0 -31.99,5.75 -42.92,17.05l12.26 13.41c6.71,-8.05 16.28,-12.07 29.12,-12.07 7.85,0 15.13,2.3 21.46,6.71 6.13,4.41 9.58,10.54 10.16,18.01l-79.9 0zm79.9 16.86c0,8.24 -3.06,14.56 -9.39,19.35 -6.32,4.79 -13.41,7.28 -21.07,7.28 -16.09,0 -27.97,-9.58 -27.97,-26.63l58.44 0zm80.09 45.03c10.92,0 19.93,-2.88 27.01,-8.62 7.09,-5.94 10.54,-13.6 10.54,-23.37 0,-9.77 -3.45,-16.86 -10.34,-21.46 -6.9,-4.6 -12.65,-6.71 -18.97,-8.81 -6.13,-2.1 -16.28,-3.83 -20.69,-6.32 -3.26,-1.53 -4.98,-4.02 -4.98,-7.28 0,-7.47 7.09,-11.11 17.24,-11.11 9.77,0 18.78,2.68 27.01,8.24l8.05 -15.9c-10.54,-6.89 -21.65,-10.34 -33.33,-10.34 -11.69,0 -21.27,2.87 -28.74,8.62 -7.28,5.55 -10.92,13.22 -10.92,22.61 0,13.41 10.54,22.99 31.8,28.74l2.3 0.77c13.6,4.02 20.31,8.62 20.31,13.8 0,6.89 -5.94,11.88 -15.71,11.88 -11.3,0 -22.8,-4.41 -34.49,-13.41l-10.35 16.67c12.26,9.77 29.51,15.33 44.26,15.33zm133.15 -48.28c0,9.39 -2.68,16.67 -8.24,21.65 -5.56,4.79 -12.07,7.28 -19.35,7.28 -15.52,0 -23.37,-9.39 -23.37,-28.17l0 -55.95 -21.46 0 0 62.46c0,26.63 15.52,41 38.51,41 13.99,0 27.02,-7.67 33.91,-20.12l0 18.58 21.46 0 0 -101.93 -21.46 0 0 55.18zm73.96 46.75l0 -142.16 -21.46 0 0 142.16 21.46 0zm135.07 22.23c0,-9.01 -4.41,-13.99 -13.41,-15.14l3.07 -5.94c8.24,-0.96 15.33,-3.83 20.88,-8.24 7.09,-5.94 10.54,-13.6 10.54,-23.37 0,-9.77 -3.45,-16.86 -10.34,-21.46 -6.9,-4.6 -12.65,-6.71 -18.97,-8.81 -6.13,-2.1 -16.28,-3.83 -20.69,-6.32 -3.26,-1.53 -4.98,-4.02 -4.98,-7.28 0,-7.47 7.09,-11.11 17.24,-11.11 9.77,0 18.78,2.68 27.01,8.24l8.05 -15.9c-10.54,-6.89 -21.65,-10.34 -33.33,-10.34 -11.69,0 -21.27,2.87 -28.74,8.62 -7.28,5.55 -10.92,13.22 -10.92,22.61 0,13.41 10.54,22.99 31.8,28.74l2.3 0.77c13.6,4.02 20.31,8.62 20.31,13.8 0,6.89 -5.94,11.88 -15.71,11.88 -11.3,0 -22.8,-4.41 -34.49,-13.41l-10.35 16.67c10.16,8.24 23.76,13.41 36.79,14.75l-6.13 11.88c4.6,-2.49 13.99,0 13.41,6.89 0,6.51 -7.47,9.77 -15.33,5.56l-4.98 10.92c4.41,2.88 9.77,4.22 15.9,4.22 12.26,0 21.07,-8.24 21.07,-18.2zm38.89 -82.58l0 14.75c0,14.75 4.79,26.25 14.56,34.49 9.77,8.43 21.46,12.65 35.44,12.65 13.79,0 25.86,-4.79 36.02,-14.18 10.16,-9.39 15.33,-22.23 15.33,-38.32 0,-15.9 -4.98,-28.74 -14.95,-38.32 -10.15,-9.38 -22.42,-14.18 -36.59,-14.18 -17.62,0 -31.99,5.75 -42.92,17.05l12.26 13.41c6.71,-8.05 16.28,-12.07 29.12,-12.07 7.85,0 15.13,2.3 21.46,6.71 6.13,4.41 9.58,10.54 10.16,18.01l-79.9 0zm79.9 16.86c0,8.24 -3.06,14.56 -9.39,19.35 -6.32,4.79 -13.41,7.28 -21.07,7.28 -16.09,0 -27.97,-9.58 -27.97,-26.63l58.44 0zm61.31 -58.44l-26.25 0 34.29 50.01 -36.21 51.92 25.1 0 23.76 -33.91 24.33 33.91 26.44 0 -37.17 -52.11 35.64 -49.81 -25.48 0 -22.61 33.53 -21.84 -33.53zm125.69 103.46c10.92,0 19.93,-2.88 27.01,-8.62 7.09,-5.94 10.54,-13.6 10.54,-23.37 0,-9.77 -3.45,-16.86 -10.34,-21.46 -6.9,-4.6 -12.65,-6.71 -18.97,-8.81 -6.13,-2.1 -16.28,-3.83 -20.69,-6.32 -3.26,-1.53 -4.98,-4.02 -4.98,-7.28 0,-7.47 7.09,-11.11 17.24,-11.11 9.77,0 18.78,2.68 27.01,8.24l8.05 -15.9c-10.54,-6.89 -21.65,-10.34 -33.33,-10.34 -11.69,0 -21.27,2.87 -28.74,8.62 -7.28,5.55 -10.92,13.22 -10.92,22.61 0,13.41 10.54,22.99 31.8,28.74l2.3 0.77c13.6,4.02 20.31,8.62 20.31,13.8 0,6.89 -5.94,11.88 -15.71,11.88 -11.3,0 -22.8,-4.41 -34.49,-13.41l-10.35 16.67c12.26,9.77 29.51,15.33 44.26,15.33zm64.18 -4.22c5.56,5.56 14.75,5.56 20.31,0 5.55,-5.56 5.55,-14.75 0,-20.12 -5.56,-5.55 -14.75,-5.55 -20.31,0 -5.36,5.36 -5.36,14.56 0,20.12zm0 -46.94c5.56,5.55 14.75,5.55 20.31,0 5.55,-5.56 5.55,-14.75 0,-20.12 -5.56,-5.56 -14.75,-5.56 -20.31,0 -5.36,5.36 -5.36,14.56 0,20.12zm128.36 19.16l67.06 0 13.41 30.46 24.14 0 -59.01 -133.92 -24.14 0 -59.01 133.92 24.14 0 13.41 -30.46zm57.86 -20.89l-48.66 0 24.33 -55.18 24.33 55.18zm63.42 48.67c5.56,5.56 14.75,5.56 20.31,0 5.56,-5.56 5.56,-14.75 0,-20.12 -5.55,-5.55 -14.75,-5.55 -20.31,0 -5.36,5.36 -5.36,14.56 0,20.12zm74.53 -27.78l67.06 0 13.41 30.46 24.14 0 -59.01 -133.92 -24.14 0 -59.01 133.92 24.14 0 13.41 -30.46zm57.86 -20.89l-48.66 0 24.33 -55.18 24.33 55.18zm156.53 -50.58l-21.46 0 0 15.14c-8.43,-11.12 -19.35,-16.67 -32.95,-16.67 -13.41,0 -24.52,4.79 -33.15,14.18 -8.62,9.39 -13.03,21.27 -13.03,35.25 0,13.99 4.41,25.86 13.03,35.25 8.62,9.39 19.73,14.18 33.33,14.18 14.75,0 27.4,-7.47 33.72,-19.73l0 13.03c0,11.5 -3.07,19.93 -9.01,25.1 -5.94,5.17 -13.99,7.85 -24.14,7.85 -9.96,0 -19.93,-3.83 -30.08,-11.3l-10.16 16.29c12.45,9.58 26.25,14.37 41.57,14.37 15.14,0 27.78,-4.6 37.55,-13.6 9.77,-9.01 14.75,-22.61 14.75,-40.43l0 -88.9zm-79.51 47.13c0,-8.43 2.49,-15.71 7.67,-22.03 5.17,-6.32 12.07,-9.39 20.88,-9.39 8.62,0 15.71,3.06 21.27,9.2 5.56,5.94 8.24,13.22 8.24,22.22 0,8.63 -2.68,15.91 -8.24,21.84 -5.36,5.94 -12.45,8.81 -21.27,8.81 -8.62,0 -15.71,-3.06 -20.88,-9 -5.17,-5.94 -7.67,-13.22 -7.67,-21.65zm-0.38 -93.88c1.34,17.82 14.18,28.35 32.76,28.35 18.58,0 31.42,-10.54 32.76,-28.35l-15.9 0c-2.49,8.05 -8.24,12.07 -16.86,12.07 -8.81,0 -14.37,-4.02 -16.86,-12.07l-15.9 0zm193.51 148.67l0 -65.72c0,-26.06 -16.86,-37.74 -40.81,-37.74 -15.52,0 -29.7,4.98 -42.15,14.75l9.58 13.41c10.16,-6.89 19.93,-10.34 29.5,-10.34 15.14,0 22.61,6.71 22.61,20.31l0 3.83 -27.78 0c-25.48,0 -41.19,9.96 -41.19,30.08 0,10.16 3.45,18.01 10.35,23.95 7.09,5.94 15.9,9.01 26.44,9.01 14.18,0 25.48,-4.98 33.91,-15.14l0 13.6 19.54 0zm-21.46 -37.94c0,13.03 -11.88,21.27 -25.68,21.27 -13.79,0 -21.65,-5.36 -21.65,-15.33 0,-9.77 7.66,-14.56 23.18,-14.56l24.14 0 0 8.62zm64.18 78.55c13.22,0 24.91,-8.24 30.85,-21.46l49.43 -121.09 -22.99 0 -30.46 75.1 -30.46 -75.1 -22.99 0c27.4,68.21 41.19,103.08 41.19,104.8 0.58,12.65 -16.67,24.14 -30.08,10.15l-9.77 17.44c7.47,6.71 15.9,10.16 25.29,10.16zm191.98 -82.19l0 -14.75c0,-14.75 -4.79,-26.25 -14.56,-34.49 -9.77,-8.43 -21.65,-12.65 -35.45,-12.65 -13.79,0 -25.86,4.79 -36.02,14.18 -10.15,9.39 -15.33,22.23 -15.33,38.32 0,15.9 4.98,28.74 14.95,38.32 10.16,9.39 22.42,14.18 36.59,14.18 17.62,0 32,-5.75 42.92,-17.05l-12.26 -13.41c-6.71,8.04 -16.48,12.07 -29.12,12.07 -7.86,0 -15.14,-2.3 -21.46,-6.71 -6.13,-4.41 -9.58,-10.54 -10.16,-18.01l79.9 0zm-79.9 -16.86c0,-8.24 3.07,-14.56 9.39,-19.35 6.32,-4.79 13.41,-7.28 21.07,-7.28 16.09,0 27.97,9.58 27.97,26.63l-58.44 0zm130.48 58.44l24.52 0 41 -101.93 -22.22 0 -31.04 77.02 -31.04 -77.02 -22.22 0 41 101.93z"/>
   <path class="fil4" d="M5703.03 806.95c-6.88,41.91 -43.53,110.33 -81.74,137.1 -69.79,48.89 -196.2,-2.13 -234.4,-50.23 -27.63,-34.8 7.12,-42.27 37.12,-49.67 50.74,-12.51 133.71,-21.21 188.49,-25.5l3.69 9.03c0.08,-0.29 0.29,0.99 0.81,1.48l3.21 -11.44 82.83 -10.77zm-604.54 -59.49c25.26,-22.77 174.34,-31.49 221.4,-35.33 34,-2.78 218.53,-19.96 236.72,-17.75 -86.93,92.17 -214.88,135.73 -350.15,102.38 -35.61,-8.78 -93.2,-23.78 -107.97,-49.29zm764.28 -69.91c-3.34,10.48 -32.35,33.43 -52.48,74.04 -11.77,23.74 -1.96,24.32 -32.01,29.46 -17.6,3.01 -36.8,8.03 -54.91,8.87 3.06,-19.39 26.03,-89.64 20.5,-104 -15.47,10.63 -28.89,82.36 -36.08,107.12 -25.16,3.93 -61.13,11.86 -86.69,11.3 3.77,-21.87 11.03,-40.81 18.03,-60.7 6.47,-18.41 12.81,-39.62 19.89,-56.12l203.75 -9.95zm266.6 -11.78l-8.65 6.47c-73.26,37.47 -241.54,98.15 -305.01,100.22 4.42,-24.78 25.5,-54.29 37.37,-69.18 5.51,-6.9 19.54,-24.54 26.78,-26.45 10.4,-2.76 242.17,-12 249.5,-11.04zm0 0l-241.8 2.64c13.22,-21.59 82.79,-66.83 112.34,-83.16 51.69,-28.57 165.3,-76.43 228.4,-58.34 32.32,9.27 31.47,34.95 13.28,58.39 -14.82,19.09 -31.22,31.89 -51.67,45.85 -10.35,7.07 -48.47,32.34 -60.56,34.62zm-547.66 14.36c13.56,-11.57 25.04,-27.59 38.06,-42.77 20.69,-24.12 51.51,-68.45 68.95,-96.35 7.05,-11.29 22.58,-43.77 29.77,-50.61 -2.69,18.89 -26.15,74.97 -34.07,94.99l-36.35 92.74c-12.38,1.77 -55.52,4.38 -66.35,2zm-499 74.97c0,22.87 56.62,39.66 76.55,46.36 92.01,30.94 199.69,26.74 287.27,-17.37 7.95,-4.01 11.17,-6.71 19.01,-10.65 18.65,-9.38 36.23,-21.61 52.26,-34.62 6.06,-4.92 10.7,-8.44 16.56,-13.11 5.74,-4.57 10.96,-8.3 16.19,-13.48 21.14,-20.96 14.23,-17.01 38.49,-18.73l55.24 -4.09c-9.87,20.57 -31.79,87.63 -31.79,116.55l-72.24 8.28c-44.04,4.16 -253.97,23.01 -153.89,107.65 58.31,49.32 150.41,75.91 226.16,36.67 53.89,-27.91 80.32,-85.61 100.47,-136.88 2.72,-6.91 4.77,-9.58 5.46,-17.85 9.74,0 72.82,-12.15 78.41,-14.83 0,83.1 114.42,35.34 153.98,16.24 8.81,-4.25 20.92,-9.63 32.5,-9.89 9.84,20.51 0.36,67.32 -2.73,88.39 -3.07,20.92 -9.98,46.87 -9.98,70.54l6.11 -15.08c7.3,-22.23 47.1,-158.68 17.2,-158.68 -12.78,0 -22.84,4.44 -31.76,8.5 -29.38,13.39 -146.24,68.76 -146.24,-4.27 40.44,-0.9 214.9,-61.72 248,-76.23 19.37,-8.49 35.35,-16.7 54.33,-26.2 46.65,-23.33 25.17,-16.27 64.29,-18.36l114.36 -6.43c9.92,-0.29 21.31,1.39 30.72,-1.06 0.69,-0.18 2.58,-0.83 3.19,-1.05 5.09,-1.89 2.07,-0.65 4.3,-2.06 -39.25,0 -86.87,4.24 -129.26,4.24 -7.04,-0 -14.25,-0.17 -21.27,-0.09 -11.02,0.13 -11.97,2 -21.11,2.2 10.32,-14.07 108.08,-60.24 108.08,-118.67 0,-27.28 -43.5,-31.79 -67.81,-31.79 -79.78,0 -187.82,54.14 -255.15,98.75l-49.48 37.4c-1.73,1.73 -23.28,20.96 -23.45,21.05 -6.04,3.24 -69.85,3.02 -85.15,3.85l-127.14 6.37 79.23 -206.85c4.04,-11.47 7.66,-20.33 7.66,-34.73 -21.57,5.76 -40.99,51.68 -52.31,70.6 -16.1,26.91 -106.4,168.47 -132.22,175.06 -12.1,3.09 -154.7,8.58 -175.15,11.33 -58.14,7.83 -250.99,14.98 -294.26,44.8 -4.93,3.4 -13.59,11.35 -13.59,18.19zm1336.33 45.05c0,27.25 1.4,48.7 -13.25,68.03 -7.12,9.4 -38.68,30.95 -56.94,15.12 -22.77,-19.73 56.45,-81.09 70.19,-83.15zm-81.99 -44.36c1.86,-8.54 26.69,-63.05 36.79,-70.62 -3.12,16.15 -16.55,41.55 -25.44,55.7 -4.03,6.43 -6.13,11.21 -11.36,14.93zm95.54 22.62c0,-12.87 -2.12,-16.98 -2.12,-27.55 -19.69,1.64 -12.58,24.99 -50.86,33.9 2.58,-9.63 9.58,-13.12 10.6,-25.43 -26.97,0 -28.34,35.38 -57.22,36.02 -1.41,-17.02 -9.45,-5.03 16.05,-39.05 14.11,-18.83 46.62,-71.02 41.17,-94.46 -21.89,1.82 -42.55,44.73 -50.86,61.45 -6.37,12.81 -11.95,24.11 -16.71,38.39 -5.59,16.8 -4.57,26.62 -25.67,31.54 -0.6,-7.2 -1.62,-7.76 -4.24,-12.71 -11.95,3.19 -9.62,11.7 -27.56,21.19 4.15,-17.78 17.84,-19.21 21.19,-31.78 -8.74,0.19 -21.99,7.08 -31.09,11.29 -8.36,3.87 -23.7,10.06 -28.24,16.26 10.62,5.1 20.49,-5.84 31.78,-8.48 -0.01,0.02 -19.46,25.43 -6.35,25.43 8.39,0 19.28,-7.37 25.42,-12.72 10.16,2.71 2,4.24 12.72,4.24 11.21,0 14.52,-8.06 25.43,-10.6 2.37,28.52 33.4,3.19 44.5,-4.24 9.11,2.43 6.75,11.96 29.76,0.09 9.81,-5.06 16.82,-11.34 25.34,-17.05 0,9.99 0.38,9.48 2.12,16.96 -8.55,4.52 -18.06,11.92 -26.34,18.16 -9.48,7.14 -15.96,12.56 -24.84,19.67l-19.01 19.13c-56.93,61.22 31.61,68.94 71.48,16.39 15.26,-20.12 15.67,-43.35 15.67,-77.58 28.85,-19.32 186.48,-110.15 186.48,-156.82 0,-8.25 -0.73,-7.83 -8.48,-8.48 10.8,22.49 -18.99,41.28 -29.14,51.38 -6.91,6.88 -14.93,13.22 -22.91,19.48l-74.67 52.48c-18.21,12.13 -33.86,23.14 -53.4,33.48zm-440.8 189.1c0.03,-12.92 5.03,-18.75 18.61,-28.56 8.53,-6.16 18.14,-12.73 28.32,-18.24 54.77,-29.61 152.82,-61.51 215.44,-67.55 10.12,64.59 -152.93,120.28 -222.41,123.45 -7.61,0.35 -15.6,-0.11 -22.81,-1.3 -11.04,-1.83 -9.42,-2.44 -17.15,-7.81zm30.22 22.81l-14.65 0c-14.67,-1 -19.59,-5.49 -30.38,-12.72 0,-15.33 5.75,-25.12 16.41,-34.45l29.53 -21.33c24.64,-14.68 41.97,-22.92 68.16,-33.55 49.13,-19.93 71.69,-23.38 119.52,-33.05 11.22,-2.27 31.08,-6.64 41.86,-6.88 -14.49,-21.62 -42.01,-16.64 -61.46,-29.66 0,-17.88 3.44,-12.91 6.36,-25.43 -19.74,0 -11.03,7.5 -29.26,17.38 -12.17,6.59 -24.19,9.44 -27.96,-6.78 -26.55,14.05 -40.26,41.41 -40.26,2.12 -8.84,5.92 -17.58,11.21 -26.64,17.86 -35.05,25.75 -33.52,1.34 -26.34,-13.62 -12.42,2.89 -15.76,11.6 -29.66,14.83 0.87,-7.98 -4.15,-2.93 13.1,-14.45 46.6,-31.12 29.28,-13.1 29.28,10.21 7.45,-1.99 12.08,-6.55 14.78,-13.03 5.78,-13.81 -0.98,-5.66 -2.06,-18.75 13.43,0.3 4.37,1.44 14.84,4.24l0 10.6c13.39,-3.58 11.92,-12.71 29.66,-12.71 0,9.42 1.11,12.36 -2.12,19.07 16.23,-1.35 17.93,-22.86 38.15,-23.31 4.31,8.97 0.86,7.61 8.47,14.83 22.43,-1.86 10.16,-23.01 35.94,-23.58 31.91,-0.7 13.03,10.79 8.57,29.94 27.04,6.3 59.64,12.18 65.7,38.14 16.03,-3.74 45.58,-4.24 65.69,-4.24l0 2.12c-21.72,0 -42.14,6.36 -65.69,6.36 -1.56,69.97 -173.73,135.95 -249.53,139.86z"/>
  </g>
 </g>
</svg>
